<svg width="87" height="65" viewBox="0 0 87 65" fill="none" xmlns="http://www.w3.org/2000/svg">
<path d="M48.5 32.5C48.5 45.7548 37.7548 56.5 24.5 56.5C11.2452 56.5 0.5 45.7548 0.5 32.5C0.5 19.2452 11.2452 8.5 24.5 8.5C37.7548 8.5 48.5 19.2452 48.5 32.5Z" fill="#1D1D1D"/>
<path d="M6.036 46.528C5.068 44.7093 4.584 42.568 4.584 40.104C4.584 37.816 4.96533 35.7773 5.728 33.988C6.52 32.1693 7.37067 30.7173 8.28 29.632C9.21867 28.5173 10.348 27.6373 11.668 26.992C13.0173 26.3173 14.44 25.98 15.936 25.98C18.048 25.98 19.7347 26.5813 20.996 27.784L26.76 22.944C26.6427 21.9173 26.584 20.9053 26.584 19.908C26.584 13.396 28.3 10.14 31.732 10.14C32.612 10.14 33.3013 10.448 33.8 11.064C34.2987 11.68 34.5773 12.472 34.636 13.44C34.6653 14.848 34.2107 16.256 33.272 17.664C32.3627 19.072 31.0133 20.612 29.224 22.284C30.1333 28.356 30.588 32.492 30.588 34.692C30.588 36.8627 30.3093 38.9747 29.752 41.028C29.1947 43.052 28.344 44.9 27.2 46.572C26.056 48.244 24.4867 49.5493 22.492 50.488C20.4973 51.4267 18.18 51.896 15.54 51.896C11.756 51.896 8.896 50.6053 6.96 48.024C6.432 49.872 6.168 51.9693 6.168 54.316C6.168 56.692 6.784 58.8187 8.016 60.696C9.27733 62.6027 10.8907 63.556 12.856 63.556C13.0027 63.556 13.076 63.7027 13.076 63.996C13.1053 64.2893 13.032 64.436 12.856 64.436C10.5387 64.436 8.632 63.336 7.136 61.136C5.64 58.9653 4.892 56.5453 4.892 53.876C4.892 51.2067 5.27333 48.7573 6.036 46.528ZM21.744 28.62C22.5653 29.7347 22.976 30.996 22.976 32.404C22.976 33.7827 22.756 35.0293 22.316 36.144C21.9053 37.2293 21.1573 38.1973 20.072 39.048C19.016 39.8693 17.784 40.28 16.376 40.28C16.0827 40.28 15.848 40.2067 15.672 40.06C15.5253 39.9133 15.4227 39.6787 15.364 39.356C16.6253 39.356 17.784 38.7693 18.84 37.596C20.3653 35.9533 21.128 34.1053 21.128 32.052C21.128 31.2013 20.9667 30.38 20.644 29.588C17.3587 32.404 14.5867 35.1613 12.328 37.86C10.0693 40.5587 8.412 43.492 7.356 46.66C9.028 49.3587 11.6533 50.708 15.232 50.708C17.432 50.708 19.3533 50.2387 20.996 49.3C22.668 48.3907 23.9733 47.144 24.912 45.56C26.76 42.4507 27.684 38.6813 27.684 34.252C27.684 33.1667 27.42 29.8667 26.892 24.352L21.744 28.62ZM19.984 28.664C19.0453 27.6667 17.7547 27.168 16.112 27.168C14.4693 27.168 12.988 27.564 11.668 28.356C9.23333 29.8227 7.488 32.2867 6.432 35.748C5.96267 37.2147 5.728 38.7253 5.728 40.28C5.728 42.0107 6.00667 43.6093 6.564 45.076C8.588 40.0013 13.0613 34.5307 19.984 28.664ZM28.828 17.664C28.828 18.456 28.9013 19.512 29.048 20.832C31.952 17.9867 33.404 15.5813 33.404 13.616C33.404 12.0907 32.8467 11.328 31.732 11.328C29.796 11.328 28.828 13.44 28.828 17.664Z" fill="white"/>
<path d="M34.2593 25.4549L34.4273 22.3189C34.4273 20.3216 34.5206 19.2296 34.7073 19.0429C34.8939 18.8562 35.2206 18.5856 35.6873 18.2309C36.1726 17.8576 36.5179 17.6709 36.7233 17.6709C36.9473 17.6709 37.0873 17.7082 37.1433 17.7829C37.1993 17.8576 37.2273 18.0069 37.2273 18.2309C37.2273 19.0336 37.0499 19.8456 36.6953 20.6669C36.4153 22.3842 36.2753 23.7936 36.2753 24.8949C36.2753 25.9962 36.4526 26.5469 36.8073 26.5469C37.2366 26.5469 37.7406 26.1736 38.3193 25.4269C38.8979 24.6802 39.4766 23.5696 40.0553 22.0949C40.2233 20.2282 40.3539 19.2202 40.4473 19.0709C40.5593 18.9216 40.8206 18.6509 41.2313 18.2589C41.6419 17.8669 41.9779 17.6709 42.2393 17.6709C42.5193 17.6709 42.6593 18.0256 42.6593 18.7349C42.6593 18.9216 42.6033 19.2856 42.4913 19.8269C42.3979 20.3682 42.2859 20.7602 42.1553 21.0029C41.9499 21.5256 41.8473 23.1402 41.8473 25.8469C41.8473 26.3509 41.9033 26.6029 42.0153 26.6029C42.3326 26.5842 42.7713 26.1922 43.3313 25.4269C43.8913 24.6429 44.4419 23.6442 44.9833 22.4309C45.5433 21.2176 45.8793 20.6109 45.9913 20.6109C46.1219 20.6109 46.1873 20.6856 46.1873 20.8349C46.1873 21.3576 45.9166 22.1882 45.3753 23.3269C43.9006 26.4629 42.6593 28.0309 41.6513 28.0309C40.9233 28.0309 40.3726 27.8816 39.9993 27.5829C39.8686 27.4522 39.8033 27.0509 39.8033 26.3789C39.8033 25.7069 39.8313 24.9602 39.8873 24.1389C39.2899 25.4082 38.6926 26.3789 38.0953 27.0509C37.4979 27.7042 36.8259 28.0309 36.0793 28.0309C35.3513 28.0309 34.8659 27.8349 34.6233 27.4429C34.3806 27.0509 34.2593 26.3882 34.2593 25.4549ZM46.9218 20.5829L48.4618 20.4149C48.6112 20.4149 48.7418 20.4989 48.8538 20.6669C48.9658 20.8349 49.0218 21.0122 49.0218 21.1989C49.0218 21.3856 48.9565 22.0202 48.8258 23.1029C48.7138 24.1856 48.6578 25.0442 48.6578 25.6789C48.6578 26.2949 48.7138 26.6029 48.8258 26.6029C49.1432 26.5842 49.5818 26.1922 50.1418 25.4269C50.7018 24.6429 51.2525 23.6442 51.7938 22.4309C52.3538 21.2176 52.6898 20.6109 52.8018 20.6109C52.9325 20.6109 52.9978 20.6856 52.9978 20.8349C52.9978 21.3576 52.7272 22.1882 52.1858 23.3269C50.7112 26.4629 49.4698 28.0309 48.4618 28.0309C47.7338 28.0309 47.1832 27.8816 46.8098 27.5829C46.6792 27.4522 46.6138 26.6402 46.6138 25.1469C46.6138 23.6536 46.7725 22.3749 47.0898 21.3109C46.0072 21.3109 45.2512 20.9656 44.8218 20.2749C44.5978 19.9202 44.4858 19.5189 44.4858 19.0709C44.4858 18.6229 44.5792 18.2309 44.7658 17.8949C44.9525 17.5589 45.2138 17.3909 45.5498 17.3909C45.9045 17.3909 46.2218 17.5776 46.5018 17.9509C46.8005 18.3056 46.9498 18.7069 46.9498 19.1549C46.9498 19.6029 46.8192 20.0509 46.5578 20.4989C46.6325 20.5549 46.7538 20.5829 46.9218 20.5829ZM59.4906 28.0309C58.7626 28.0309 58.2119 27.8816 57.8386 27.5829C57.7079 27.4522 57.6426 27.1256 57.6426 26.6029C57.6426 26.0616 57.6612 25.3429 57.6986 24.4469C57.2132 25.6602 56.7279 26.5656 56.2426 27.1629C55.7759 27.7416 55.1692 28.0309 54.4226 28.0309C53.6759 28.0309 53.0226 27.6856 52.4626 26.9949C51.9026 26.2856 51.6226 25.1842 51.6226 23.6909C51.6226 22.1789 52.0426 20.8442 52.8826 19.6869C53.7412 18.5296 54.8612 17.9509 56.2426 17.9509C56.8399 17.9509 57.5119 18.3429 58.2586 19.1269C58.4079 18.9216 58.6692 18.6789 59.0426 18.3989C59.4346 18.1002 59.7612 17.9509 60.0226 17.9509C60.3026 17.9509 60.4426 18.3056 60.4426 19.0149C60.4426 19.2016 60.3866 19.5656 60.2746 20.1069C60.1812 20.6482 60.0692 21.0402 59.9386 21.2829C59.7706 21.7122 59.6866 23.2336 59.6866 25.8469C59.6866 26.3509 59.7426 26.6029 59.8546 26.6029C60.1719 26.5842 60.6106 26.1922 61.1706 25.4269C61.7306 24.6429 62.2812 23.6442 62.8226 22.4309C63.3826 21.2176 63.7186 20.6109 63.8306 20.6109C63.9612 20.6109 64.0266 20.6856 64.0266 20.8349C64.0266 21.3576 63.7559 22.1882 63.2146 23.3269C61.7399 26.4629 60.4986 28.0309 59.4906 28.0309ZM56.0746 19.0709C55.5519 19.0709 54.9919 19.4629 54.3946 20.2469C53.8159 21.0122 53.5266 21.9176 53.5266 22.9629C53.5266 24.0082 53.6759 24.8669 53.9746 25.5389C54.2919 26.2109 54.7026 26.5469 55.2066 26.5469C55.8226 26.5469 56.7279 25.0069 57.9226 21.9269C57.9412 21.7776 57.9599 21.5256 57.9786 21.1709C58.0159 20.7976 58.0439 20.5176 58.0626 20.3309C57.8946 20.0322 57.5959 19.7522 57.1666 19.4909C56.7559 19.2109 56.3919 19.0709 56.0746 19.0709ZM67.0733 21.6189C64.8146 21.6189 63.3866 21.2642 62.7893 20.5549C62.4906 20.2002 62.3413 19.7989 62.3413 19.3509C62.3413 18.9029 62.472 18.5669 62.7333 18.3429C63.0133 18.1002 63.3026 17.9789 63.6013 17.9789C63.9186 17.9789 64.18 18.1096 64.3853 18.3709C64.5906 18.6136 64.6933 18.8469 64.6933 19.0709C64.6933 19.4069 65.0666 19.6496 65.8133 19.7989C66.56 19.9296 67.288 19.9949 67.9973 19.9949C68.7253 18.9682 69.2386 18.3896 69.5373 18.2589C69.6493 18.2216 69.7706 18.2029 69.9013 18.2029C70.2 18.2029 70.3493 18.5016 70.3493 19.0989C70.3493 19.6962 70.2186 20.1536 69.9573 20.4709C69.696 20.7882 69.2386 21.0869 68.5853 21.3669C67.484 22.3749 66.4013 23.5416 65.3373 24.8669C65.8226 24.9789 66.56 25.2029 67.5493 25.5389C68.5386 25.8562 69.108 26.0149 69.2573 26.0149C70.0226 26.0149 70.9653 24.7736 72.0853 22.2909C72.5893 21.1709 72.8973 20.6109 73.0093 20.6109C73.14 20.6109 73.2053 20.7509 73.2053 21.0309C73.2053 21.3109 72.9346 22.0762 72.3933 23.3269C70.956 26.5562 69.5933 28.1709 68.3053 28.1709C68.1746 28.1709 67.5773 27.9376 66.5133 27.4709C65.4493 27.0042 64.6466 26.7709 64.1053 26.7709C63.6386 27.4616 63.1906 27.8069 62.7613 27.8069C62.4813 27.8069 62.3413 27.5549 62.3413 27.0509C62.3413 26.5282 62.5466 26.0149 62.9573 25.5109C63.3866 24.9882 63.844 24.7269 64.3293 24.7269C65.636 23.2709 66.5506 22.2349 67.0733 21.6189ZM76.5889 21.6189C74.3303 21.6189 72.9023 21.2642 72.3049 20.5549C72.0063 20.2002 71.8569 19.7989 71.8569 19.3509C71.8569 18.9029 71.9876 18.5669 72.2489 18.3429C72.5289 18.1002 72.8183 17.9789 73.1169 17.9789C73.4343 17.9789 73.6956 18.1096 73.9009 18.3709C74.1063 18.6136 74.2089 18.8469 74.2089 19.0709C74.2089 19.4069 74.5823 19.6496 75.3289 19.7989C76.0756 19.9296 76.8036 19.9949 77.5129 19.9949C78.2409 18.9682 78.7543 18.3896 79.0529 18.2589C79.1649 18.2216 79.2863 18.2029 79.4169 18.2029C79.7156 18.2029 79.8649 18.5016 79.8649 19.0989C79.8649 19.6962 79.7343 20.1536 79.4729 20.4709C79.2116 20.7882 78.7543 21.0869 78.1009 21.3669C76.9996 22.3749 75.9169 23.5416 74.8529 24.8669C75.3383 24.9789 76.0756 25.2029 77.0649 25.5389C78.0543 25.8562 78.6236 26.0149 78.7729 26.0149C79.5383 26.0149 80.4809 24.7736 81.6009 22.2909C82.1049 21.1709 82.4129 20.6109 82.5249 20.6109C82.6556 20.6109 82.7209 20.7509 82.7209 21.0309C82.7209 21.3109 82.4503 22.0762 81.9089 23.3269C80.4716 26.5562 79.1089 28.1709 77.8209 28.1709C77.6903 28.1709 77.0929 27.9376 76.0289 27.4709C74.9649 27.0042 74.1623 26.7709 73.6209 26.7709C73.1543 27.4616 72.7063 27.8069 72.2769 27.8069C71.9969 27.8069 71.8569 27.5549 71.8569 27.0509C71.8569 26.5282 72.0623 26.0149 72.4729 25.5109C72.9023 24.9882 73.3596 24.7269 73.8449 24.7269C75.1516 23.2709 76.0663 22.2349 76.5889 21.6189Z" fill="white"/>
<path d="M36.5833 45.5425L36.6113 46.4105C36.6113 46.9332 36.4619 47.1945 36.1633 47.1945C35.7153 47.1945 35.2859 47.1385 34.8753 47.0265C34.4646 46.8959 34.2593 46.7279 34.2593 46.5225C34.2593 46.2985 34.3059 45.5612 34.3993 44.3105C34.5113 43.0412 34.5673 42.0892 34.5673 41.4545V39.8305C34.5673 35.0519 35.4166 32.0092 37.1153 30.7025C37.5073 30.4039 37.9086 30.2545 38.3193 30.2545C38.5059 30.2545 38.6926 30.4599 38.8793 30.8705C39.0659 31.2812 39.1593 31.8132 39.1593 32.4665C39.1593 34.0719 38.8886 35.5745 38.3473 36.9745C37.8059 38.3745 37.2553 39.4479 36.6953 40.1945C36.6766 40.6612 36.6673 41.3892 36.6673 42.3785C36.7419 42.2665 37.1339 41.6319 37.8433 40.4745C38.5526 39.3172 39.1499 38.4679 39.6353 37.9265C40.1393 37.3852 40.5873 37.1145 40.9793 37.1145C41.3713 37.1145 41.7166 37.2452 42.0153 37.5065C42.3326 37.7679 42.4913 38.0945 42.4913 38.4865C42.4913 39.3079 42.3979 40.5212 42.2113 42.1265C42.0433 43.7132 41.9593 44.7212 41.9593 45.1505C41.9593 45.5612 42.0153 45.7665 42.1273 45.7665C42.4446 45.7479 42.8833 45.3559 43.4433 44.5905C44.0033 43.8065 44.5539 42.8079 45.0953 41.5945C45.6553 40.3812 45.9913 39.7745 46.1033 39.7745C46.2339 39.7745 46.2993 39.8492 46.2993 39.9985C46.2993 40.5212 46.0286 41.3519 45.4873 42.4905C44.0126 45.6265 42.7713 47.1945 41.7633 47.1945C41.0353 47.1945 40.4846 47.0452 40.1113 46.7465C39.9806 46.6159 39.9153 46.2799 39.9153 45.7385C39.9153 45.1785 39.9619 44.2825 40.0553 43.0505C40.1673 41.7999 40.2233 40.8665 40.2233 40.2505C40.2233 39.6345 40.1113 39.3265 39.8873 39.3265C39.6819 39.3265 39.1219 39.9705 38.2073 41.2585C37.2926 42.5279 36.8073 43.3399 36.7513 43.6945C36.6393 44.3479 36.5833 44.9639 36.5833 45.5425ZM38.4033 33.0825C38.4033 32.2985 38.3006 31.9065 38.0953 31.9065C37.7593 31.9065 37.4326 32.9425 37.1153 35.0145C36.9473 36.1159 36.8259 37.3945 36.7513 38.8505C37.8526 36.5545 38.4033 34.6319 38.4033 33.0825ZM52.5179 47.1945C51.7899 47.1945 51.2392 47.0452 50.8659 46.7465C50.7352 46.6159 50.6699 46.2892 50.6699 45.7665C50.6699 45.2252 50.6886 44.5065 50.7259 43.6105C50.2406 44.8239 49.7552 45.7292 49.2699 46.3265C48.8032 46.9052 48.1966 47.1945 47.4499 47.1945C46.7032 47.1945 46.0499 46.8492 45.4899 46.1585C44.9299 45.4492 44.6499 44.3479 44.6499 42.8545C44.6499 41.3425 45.0699 40.0079 45.9099 38.8505C46.7686 37.6932 47.8886 37.1145 49.2699 37.1145C49.8672 37.1145 50.5392 37.5065 51.2859 38.2905C51.4352 38.0852 51.6966 37.8425 52.0699 37.5625C52.4619 37.2639 52.7886 37.1145 53.0499 37.1145C53.3299 37.1145 53.4699 37.4692 53.4699 38.1785C53.4699 38.3652 53.4139 38.7292 53.3019 39.2705C53.2086 39.8119 53.0966 40.2039 52.9659 40.4465C52.7979 40.8759 52.7139 42.3972 52.7139 45.0105C52.7139 45.5145 52.7699 45.7665 52.8819 45.7665C53.1992 45.7479 53.6379 45.3559 54.1979 44.5905C54.7579 43.8065 55.3086 42.8079 55.8499 41.5945C56.4099 40.3812 56.7459 39.7745 56.8579 39.7745C56.9886 39.7745 57.0539 39.8492 57.0539 39.9985C57.0539 40.5212 56.7832 41.3519 56.2419 42.4905C54.7672 45.6265 53.5259 47.1945 52.5179 47.1945ZM49.1019 38.2345C48.5792 38.2345 48.0192 38.6265 47.4219 39.4105C46.8432 40.1759 46.5539 41.0812 46.5539 42.1265C46.5539 43.1719 46.7032 44.0305 47.0019 44.7025C47.3192 45.3745 47.7299 45.7105 48.2339 45.7105C48.8499 45.7105 49.7552 44.1705 50.9499 41.0905C50.9686 40.9412 50.9872 40.6892 51.0059 40.3345C51.0432 39.9612 51.0712 39.6812 51.0899 39.4945C50.9219 39.1959 50.6232 38.9159 50.1939 38.6545C49.7832 38.3745 49.4192 38.2345 49.1019 38.2345ZM57.6927 45.5425L57.7207 46.4105C57.7207 46.9332 57.5713 47.1945 57.2727 47.1945C56.8247 47.1945 56.3953 47.1385 55.9847 47.0265C55.574 46.8959 55.3687 46.7279 55.3687 46.5225C55.3687 46.2985 55.4153 45.5612 55.5087 44.3105C55.6207 43.0412 55.6767 42.0892 55.6767 41.4545V39.8305C55.6767 35.0519 56.526 32.0092 58.2247 30.7025C58.6167 30.4039 59.018 30.2545 59.4287 30.2545C59.6153 30.2545 59.802 30.4599 59.9887 30.8705C60.1753 31.2812 60.2687 31.8132 60.2687 32.4665C60.2687 34.0719 59.998 35.5745 59.4567 36.9745C58.9153 38.3745 58.3647 39.4479 57.8047 40.1945C57.786 40.6612 57.7767 41.3892 57.7767 42.3785C57.8513 42.2665 58.2433 41.6319 58.9527 40.4745C59.662 39.3172 60.2593 38.4679 60.7447 37.9265C61.2487 37.3852 61.6967 37.1145 62.0887 37.1145C62.4807 37.1145 62.826 37.2452 63.1247 37.5065C63.442 37.7679 63.6007 38.0945 63.6007 38.4865C63.6007 39.3079 63.5073 40.5212 63.3207 42.1265C63.1527 43.7132 63.0687 44.7212 63.0687 45.1505C63.0687 45.5612 63.1247 45.7665 63.2367 45.7665C63.554 45.7479 63.9927 45.3559 64.5527 44.5905C65.1127 43.8065 65.6633 42.8079 66.2047 41.5945C66.7647 40.3812 67.1007 39.7745 67.2127 39.7745C67.3433 39.7745 67.4087 39.8492 67.4087 39.9985C67.4087 40.5212 67.138 41.3519 66.5967 42.4905C65.122 45.6265 63.8807 47.1945 62.8727 47.1945C62.1447 47.1945 61.594 47.0452 61.2207 46.7465C61.09 46.6159 61.0247 46.2799 61.0247 45.7385C61.0247 45.1785 61.0713 44.2825 61.1647 43.0505C61.2767 41.7999 61.3327 40.8665 61.3327 40.2505C61.3327 39.6345 61.2207 39.3265 60.9967 39.3265C60.7913 39.3265 60.2313 39.9705 59.3167 41.2585C58.402 42.5279 57.9167 43.3399 57.8607 43.6945C57.7487 44.3479 57.6927 44.9639 57.6927 45.5425ZM59.5127 33.0825C59.5127 32.2985 59.41 31.9065 59.2047 31.9065C58.8687 31.9065 58.542 32.9425 58.2247 35.0145C58.0567 36.1159 57.9353 37.3945 57.8607 38.8505C58.962 36.5545 59.5127 34.6319 59.5127 33.0825ZM66.7953 33.3625C66.7953 33.0265 66.9726 32.7372 67.3273 32.4945C67.6819 32.2519 67.9993 32.1305 68.2793 32.1305C68.7833 32.1305 69.0353 32.4199 69.0353 32.9985C69.0353 33.5772 68.8859 34.0812 68.5873 34.5105C68.2886 34.9212 67.8686 35.1265 67.3273 35.1265C66.9726 35.1265 66.7953 34.5385 66.7953 33.3625ZM67.6073 47.1945C66.8793 47.1945 66.3286 47.0452 65.9553 46.7465C65.8246 46.6159 65.7593 46.1492 65.7593 45.3465C65.7593 44.5439 65.8153 43.2092 65.9273 41.3425C66.0579 39.4572 66.1699 38.4399 66.2633 38.2905C66.3566 38.1412 66.6459 37.8612 67.1313 37.4505C67.6166 37.0399 67.9899 36.8345 68.2513 36.8345C68.5313 36.8345 68.6713 37.1892 68.6713 37.8985C68.6713 38.0852 68.6153 38.4492 68.5033 38.9905C68.4099 39.5319 68.2979 39.9239 68.1673 40.1665C67.9246 40.7825 67.8033 42.3972 67.8033 45.0105C67.8033 45.5145 67.8593 45.7665 67.9713 45.7665C68.2886 45.7479 68.7273 45.3559 69.2873 44.5905C69.8473 43.8065 70.3979 42.8079 70.9393 41.5945C71.4993 40.3812 71.8353 39.7745 71.9473 39.7745C72.0779 39.7745 72.1433 39.8492 72.1433 39.9985C72.1433 40.5212 71.8726 41.3519 71.3313 42.4905C69.8566 45.6265 68.6153 47.1945 67.6073 47.1945ZM72.6978 47.1945C72.2871 47.1945 71.9045 47.1479 71.5498 47.0545C71.2138 46.9425 71.0085 46.8399 70.9338 46.7465C70.7471 46.5225 70.6538 45.3652 70.6538 43.2745C70.6538 41.1652 70.8871 38.3092 71.3538 34.7065C71.7458 31.7385 72.6605 30.2545 74.0978 30.2545C74.4338 30.2545 74.6765 30.4412 74.8258 30.8145C74.9751 31.1692 75.0498 31.5145 75.0498 31.8505C75.0498 34.2772 74.3125 36.9932 72.8378 39.9985C72.7818 41.5479 72.7538 42.9012 72.7538 44.0585C72.7538 45.1972 72.8565 45.7665 73.0618 45.7665C73.3791 45.7479 73.8178 45.3559 74.3778 44.5905C74.9378 43.8065 75.4885 42.8079 76.0298 41.5945C76.5898 40.3812 76.9258 39.7745 77.0378 39.7745C77.1685 39.7745 77.2338 39.8492 77.2338 39.9985C77.2338 40.5212 76.9631 41.3519 76.4218 42.4905C74.9471 45.6265 73.7058 47.1945 72.6978 47.1945ZM74.3498 32.1025C74.3498 31.5052 74.2751 31.2065 74.1258 31.2065C73.5658 31.2065 73.1551 33.5305 72.8938 38.1785C73.8645 35.6212 74.3498 33.5959 74.3498 32.1025Z" fill="white"/>
<path d="M34 50H59H84.2407" stroke="white" stroke-width="0.5"/>
</svg>
